<svg width="627.7712890624999px" height="155.59622802734376px" xmlns="http://www.w3.org/2000/svg" viewBox="-63.885644531249966 -2.798114013671878 627.7712890624999 155.59622802734376" style="background: rgb(50, 41, 35);" preserveAspectRatio="xMidYMid"><defs><filter id="editing-liquid" width="150%" height="160%" x="-25%" y="-25%"><feFlood flood-color="#513e2e" result="flood-1"></feFlood><feFlood flood-color="#896038" result="flood-2"></feFlood><feFlood flood-color="#d7a05b" result="flood-3"></feFlood><feTurbulence baseFrequency="0.01" type="fractalNoise" numOctaves="1" seed="1" result="bs-1"></feTurbulence><feGaussianBlur stdDeviation="10" in="SourceAlpha" result="bs-2"></feGaussianBlur><feDisplacementMap scale="420" in="bs-2" in2="bs-1" result="bs-3"></feDisplacementMap><feComposite operator="in" in="flood-1" in2="bs-3" result="bs-4"></feComposite><feTurbulence baseFrequency="0.02" type="fractalNoise" numOctaves="2" seed="2" result="ms-1"></feTurbulence><feGaussianBlur in="SourceAlpha" stdDeviation="0.1" result="ms-2"></feGaussianBlur><feDisplacementMap in="ms-2" in2="ms-1" scale="35" result="ms-3"></feDisplacementMap><feComposite in="flood-3" in2="ms-3" operator="in" result="ms-4"></feComposite><feTurbulence baseFrequency="0.05" type="fractalNoise" numOctaves="1" seed="3" result="ts-1"></feTurbulence><feGaussianBlur stdDeviation="3.5" in="SourceAlpha" result="ts-2"></feGaussianBlur><feDisplacementMap scale="220" in="ts-2" in2="ts-1" result="ts-3"></feDisplacementMap><feComposite operator="in" in="flood-2" in2="ts-3" result="ts-4"></feComposite><feMerge result="le-1"><feMergeNode in="bs-4"></feMergeNode><feMergeNode in="ms-4"></feMergeNode><feMergeNode in="ts-4"></feMergeNode></feMerge><feColorMatrix type="matrix" in="le-1" result="le-2" values="0 0 0 0 0, 0 0 0 0 0, 0 0 0 0 0, 0 0 0 1 0"></feColorMatrix><feGaussianBlur stdDeviation="2" in="le-2" result="le-3"></feGaussianBlur><feSpecularLighting surfaceScale="5" specularConstant=".75" specularExponent="30" lighting-color="#white" in="le-3" result="le-4"><fePointLight x="-50" y="-100" z="400"></fePointLight></feSpecularLighting><feComposite operator="in" in="le-4" in2="le-2" result="le-5"></feComposite><feComposite operator="arithmetic" k1="0" k2="1" k3="1" k4="0" in="le-1" in2="le-5" result="le-6"></feComposite></filter></defs><g filter="url(#editing-liquid)"><g transform="translate(27.957183837890625, 115.53031158447266)"><path d="M20.74-62.53L34.39-62.53L34.39-61.06L31.66-61.06L31.66-61.06Q30.23-60.97 29.29-59.86L29.29-59.86L29.29-59.86Q28.34-58.75 28.22-57.45L28.22-57.45L24.78-7.64L24.78-7.31L24.78-7.31Q24.73-6.80 24.92-6.21L24.92-6.21L24.92-6.21Q25.11-5.63 25.45-5.10L25.45-5.10L25.45-5.10Q25.78-4.58 26.27-4.22L26.27-4.22L26.27-4.22Q26.75-3.86 27.34-3.86L27.34-3.86L30.86-3.78L30.78-2.31L30.78-2.31Q27.38-2.39 23.96-2.44L23.96-2.44L23.96-2.44Q20.53-2.48 17.13-2.39L17.13-2.39L17.13-3.95L19.86-3.86L19.86-3.86Q20.58-3.86 20.87-4.56L20.87-4.56L20.87-4.56Q21.16-5.25 21.16-5.84L21.16-5.84L21.16-5.84Q21.16-5.88 21.14-6.05L21.14-6.05L21.14-6.05Q21.12-6.21 21.00-7.08L21.00-7.08L21.00-7.08Q20.87-7.94 20.62-9.74L20.62-9.74L20.62-9.74Q20.37-11.55 19.88-14.84L19.88-14.84L19.88-14.84Q19.40-18.14 18.67-23.22L18.67-23.22L18.67-23.22Q17.93-28.30 16.84-35.69L16.84-35.69L13.14-3.53L13.14-3.28L13.14-3.28Q13.06-2.39 13.58-1.99L13.58-1.99L13.58-1.99Q14.11-1.60 14.87-1.43L14.87-1.43L14.87-1.43Q15.62-1.26 16.44-1.28L16.44-1.28L16.44-1.28Q17.26-1.30 17.80-1.30L17.80-1.30L17.72 0.17L4.03 0.08L4.03-1.39L7.05-1.39L7.05-1.39Q8.94-1.39 8.94-3.11L8.94-3.11L8.94-3.11Q8.94-3.19 8.90-3.30L8.90-3.30L8.90-3.30Q8.86-3.40 8.86-3.53L8.86-3.53L5.08-52.70L5.08-52.70Q4.87-54.13 4.60-54.82L4.60-54.82L4.60-54.82Q4.33-55.51 3.78-55.77L3.78-55.77L3.78-55.77Q3.23-56.02 2.33-56.00L2.33-56.00L2.33-56.00Q1.43-55.98 0-55.98L0-55.98L0-57.53L13.77-57.36L13.77-55.89L11.09-55.89L11.09-55.89Q10.58-55.89 10.23-55.62L10.23-55.62L10.23-55.62Q9.87-55.35 9.66-54.93L9.66-54.93L9.66-54.93Q9.45-54.51 9.36-54.04L9.36-54.04L9.36-54.04Q9.28-53.58 9.28-53.16L9.28-53.16L9.28-52.70L12.39-9.62L16.75-48.25L18.31-48.25L23.73-11.09L26.67-56.94L26.67-57.61L26.67-57.61Q26.58-59.04 26.04-59.78L26.04-59.78L26.04-59.78Q25.49-60.51 24.67-60.78L24.67-60.78L24.67-60.78Q23.85-61.06 22.82-61.04L22.82-61.04L22.82-61.04Q21.79-61.01 20.66-60.97L20.66-60.97L20.74-62.53ZM42.24-29.69L41.91-6.80L41.91-6.80Q41.87-5.75 42.18-5.19L42.18-5.19L42.18-5.19Q42.50-4.62 43.04-4.35L43.04-4.35L43.04-4.35Q43.59-4.07 44.32-4.03L44.32-4.03L44.32-4.03Q45.06-3.99 45.86-4.03L45.86-4.03L45.86-2.56L33.38-2.48L33.38-3.95L33.38-3.95Q34.27-3.91 35.04-3.91L35.04-3.91L35.04-3.91Q35.82-3.91 36.41-4.14L36.41-4.14L36.41-4.14Q37.00-4.37 37.33-4.93L37.33-4.93L37.33-4.93Q37.67-5.50 37.67-6.63L37.67-6.63L38.38-56.23L38.38-56.23Q38.38-56.73 38.19-57.28L38.19-57.28L38.19-57.28Q38.00-57.82 37.67-58.31L37.67-58.31L37.67-58.31Q37.33-58.79 36.87-59.10L36.87-59.10L36.87-59.10Q36.41-59.42 35.86-59.42L35.86-59.42L34.31-59.42L34.31-60.89L46.86-60.89L46.86-59.42L45.06-59.42L45.06-59.42Q44.09-59.42 43.42-58.62L43.42-58.62L43.42-58.62Q42.75-57.82 42.75-56.86L42.75-56.86L42.33-35.11L42.33-35.11Q43.88-38.13 45.65-39.37L45.65-39.37L45.65-39.37Q47.41-40.61 49.63-40.61L49.63-40.61L49.63-40.61Q51.48-40.61 52.81-39.75L52.81-39.75L52.81-39.75Q54.13-38.88 54.99-37.54L54.99-37.54L54.99-37.54Q55.85-36.20 56.27-34.54L56.27-34.54L56.27-34.54Q56.69-32.88 56.69-31.28L56.69-31.28L56.69-31.28Q56.69-26.46 56.61-21.58L56.61-21.58L56.61-21.58Q56.52-16.71 56.52-11.88L56.52-11.88L56.52-11.88Q56.52-11.34 56.71-10.69L56.71-10.69L56.71-10.69Q56.90-10.04 57.28-9.47L57.28-9.47L57.28-9.47Q57.66-8.90 58.18-8.52L58.18-8.52L58.18-8.52Q58.71-8.15 59.33-8.10L59.33-8.10L60.47-8.10L60.47-6.63L48.08-6.55L48.08-7.98L49.55-7.98L49.55-7.98Q50.14-8.02 50.64-8.34L50.64-8.34L50.64-8.34Q51.15-8.65 51.52-9.11L51.52-9.11L51.52-9.11Q51.90-9.57 52.13-10.14L52.13-10.14L52.13-10.14Q52.36-10.71 52.36-11.25L52.36-11.25L52.36-11.25Q52.36-15.16 52.41-18.90L52.41-18.90L52.41-18.90Q52.41-20.49 52.41-22.19L52.41-22.19L52.41-22.19Q52.41-23.89 52.43-25.55L52.43-25.55L52.43-25.55Q52.45-27.21 52.45-28.72L52.45-28.72L52.45-28.72Q52.45-30.23 52.45-31.49L52.45-31.49L52.45-31.49Q52.41-32.38 52.32-33.57L52.32-33.57L52.32-33.57Q52.24-34.77 51.90-35.82L51.90-35.82L51.90-35.82Q51.57-36.87 50.85-37.60L50.85-37.60L50.85-37.60Q50.14-38.34 48.84-38.34L48.84-38.34L48.84-38.34Q47.41-38.34 46.32-37.52L46.32-37.52L46.32-37.52Q45.23-36.70 44.41-35.44L44.41-35.44L44.41-35.44Q43.59-34.18 43.06-32.65L43.06-32.65L43.06-32.65Q42.54-31.12 42.24-29.69L42.24-29.69ZM74.83-6.17L75.00-10.41L75.00-10.41Q74.49-9.53 73.65-8.78L73.65-8.78L73.65-8.78Q72.81-8.02 71.85-7.43L71.85-7.43L71.85-7.43Q70.88-6.84 69.83-6.51L69.83-6.51L69.83-6.51Q68.78-6.17 67.86-6.17L67.86-6.17L67.86-6.17Q66.43-6.17 65.38-6.78L65.38-6.78L65.38-6.78Q64.33-7.39 63.62-8.38L63.62-8.38L63.62-8.38Q62.90-9.36 62.55-10.60L62.55-10.60L62.55-10.60Q62.19-11.84 62.19-13.14L62.19-13.14L62.19-13.14Q62.19-15.58 63.24-17.45L63.24-17.45L63.24-17.45Q64.29-19.32 65.84-20.87L65.84-20.87L65.84-20.87Q67.40-22.42 69.25-23.85L69.25-23.85L69.25-23.85Q71.09-25.28 72.65-26.92L72.65-26.92L72.65-26.92Q74.20-28.55 75.25-30.53L75.25-30.53L75.25-30.53Q76.30-32.50 76.30-35.19L76.30-35.19L76.30-35.19Q76.34-36.49 76.05-37.92L76.05-37.92L76.05-37.92Q75.75-39.35 75.02-40.54L75.02-40.54L75.02-40.54Q74.28-41.74 73.15-42.50L73.15-42.50L73.15-42.50Q72.02-43.25 70.46-43.25L70.46-43.25L70.46-43.25Q68.78-43.25 67.71-42.45L67.71-42.45L67.71-42.45Q66.64-41.66 66.01-40.42L66.01-40.42L66.01-40.42Q65.38-39.18 65.15-37.65L65.15-37.65L65.15-37.65Q64.92-36.11 64.92-34.64L64.92-34.64L64.92-34.64Q64.92-34.06 65.00-33.17L65.00-33.17L65.00-33.17Q65.09-32.29 65.30-31.47L65.30-31.47L65.30-31.47Q65.51-30.65 65.86-30.07L65.86-30.07L65.86-30.07Q66.22-29.48 66.77-29.48L66.77-29.48L66.77-29.48Q67.36-29.48 67.71-29.86L67.71-29.86L67.71-29.86Q68.07-30.23 68.26-30.76L68.26-30.76L68.26-30.76Q68.45-31.28 68.47-31.87L68.47-31.87L68.47-31.87Q68.49-32.46 68.45-32.92L68.45-32.92L69.92-33.01L69.92-33.01Q69.96-32.04 69.81-31.14L69.81-31.14L69.81-31.14Q69.67-30.23 69.29-29.52L69.29-29.52L69.29-29.52Q68.91-28.81 68.28-28.39L68.28-28.39L68.28-28.39Q67.65-27.97 66.77-27.97L66.77-27.97L66.77-27.97Q65.55-27.97 64.73-28.66L64.73-28.66L64.73-28.66Q63.91-29.35 63.45-30.38L63.45-30.38L63.45-30.38Q62.99-31.41 62.80-32.59L62.80-32.59L62.80-32.59Q62.61-33.76 62.61-34.73L62.61-34.73L62.61-34.73Q62.61-36.62 63.11-38.42L63.11-38.42L63.11-38.42Q63.62-40.23 64.63-41.68L64.63-41.68L64.63-41.68Q65.63-43.13 67.19-44.01L67.19-44.01L67.19-44.01Q68.74-44.89 70.88-44.89L70.88-44.89L70.88-44.89Q73.57-44.89 75.33-43.59L75.33-43.59L75.33-43.59Q77.10-42.29 78.15-40.29L78.15-40.29L78.15-40.29Q79.20-38.30 79.64-35.97L79.64-35.97L79.64-35.97Q80.08-33.64 80.08-31.58L80.08-31.58L80.08-31.58Q80.08-26.25 79.70-20.98L79.70-20.98L79.70-20.98Q79.32-15.71 79.32-10.33L79.32-10.33L79.32-10.33Q79.32-9.15 79.62-8.55L79.62-8.55L79.62-8.55Q79.91-7.94 80.46-7.68L80.46-7.68L80.46-7.68Q81.00-7.43 81.78-7.39L81.78-7.39L81.78-7.39Q82.56-7.35 83.52-7.31L83.52-7.31L83.52-5.84L83.52-5.84Q81.30-5.92 79.13-5.98L79.13-5.98L79.13-5.98Q76.97-6.05 74.83-6.17L74.83-6.17ZM70.17-8.86L70.17-8.86L70.17-8.86Q70.76-8.86 71.45-9.18L71.45-9.18L71.45-9.18Q72.14-9.49 72.81-10.06L72.81-10.06L72.81-10.06Q73.49-10.62 74.10-11.36L74.10-11.36L74.10-11.36Q74.70-12.09 75.17-12.98L75.17-12.98L75.96-28.13L75.96-28.13Q74.75-26.46 73.13-24.80L73.13-24.80L73.13-24.80Q71.51-23.14 70.06-21.42L70.06-21.42L70.06-21.42Q68.62-19.69 67.59-17.85L67.59-17.85L67.59-17.85Q66.56-16.00 66.56-13.94L66.56-13.94L66.56-13.94Q66.56-13.19 66.77-12.28L66.77-12.28L66.77-12.28Q66.98-11.38 67.42-10.62L67.42-10.62L67.42-10.62Q67.86-9.87 68.55-9.36L68.55-9.36L68.55-9.36Q69.25-8.86 70.17-8.86ZM92.89-57.61L92.80-43.67L101.83-43.67L101.83-42.24L96.75-42.24L96.75-42.24Q95.87-42.24 95.13-41.76L95.13-41.76L95.13-41.76Q94.40-41.28 93.89-40.52L93.89-40.52L93.89-40.52Q93.39-39.77 93.12-38.88L93.12-38.88L93.12-38.88Q92.84-38.00 92.80-37.25L92.80-37.25L92.63-6.17L92.63-6.17Q92.63-5.12 92.70-3.70L92.70-3.70L92.70-3.70Q92.76-2.27 93.14-0.97L93.14-0.97L93.14-0.97Q93.52 0.34 94.31 1.24L94.31 1.24L94.31 1.24Q95.11 2.14 96.58 2.14L96.58 2.14L96.58 2.14Q97.59 2.14 98.22 1.64L98.22 1.64L98.22 1.64Q98.85 1.13 99.21 0.38L99.21 0.38L99.21 0.38Q99.56-0.38 99.69-1.26L99.69-1.26L99.69-1.26Q99.82-2.14 99.77-2.94L99.77-2.94L101.33-2.56L101.33-2.56Q101.33-0.55 100.80 0.78L100.80 0.78L100.80 0.78Q100.28 2.10 99.46 2.86L99.46 2.86L99.46 2.86Q98.64 3.61 97.59 3.91L97.59 3.91L97.59 3.91Q96.54 4.20 95.49 4.20L95.49 4.20L95.49 4.20Q93.43 4.20 92.07 3.15L92.07 3.15L92.07 3.15Q90.70 2.10 89.91 0.52L89.91 0.52L89.91 0.52Q89.11-1.05 88.77-2.94L88.77-2.94L88.77-2.94Q88.44-4.83 88.44-6.47L88.44-6.47L88.60-42.24L83.27-42.24L83.27-43.67L88.60-43.67L88.69-54.00L92.89-57.61ZM119.93-36.37L119.93-36.37L119.93-37.83L123.42-37.92L123.42-37.92Q123.37-40.23 123.35-41.80L123.35-41.80L123.35-41.80Q123.33-43.38 123.33-44.45L123.33-44.45L123.33-44.45Q123.33-45.52 123.33-46.23L123.33-46.23L123.33-46.23Q123.33-46.95 123.33-47.58L123.33-47.58L123.33-47.58Q123.33-49.26 123.71-51.04L123.71-51.04L123.71-51.04Q124.09-52.83 124.97-54.30L124.97-54.30L124.97-54.30Q125.85-55.77 127.28-56.69L127.28-56.69L127.28-56.69Q128.71-57.61 130.76-57.61L130.76-57.61L130.76-57.61Q133.41-57.61 135.00-56.02L135.00-56.02L135.00-56.02Q136.60-54.42 136.60-51.78L136.60-51.78L136.60-51.78Q136.60-51.15 136.50-50.39L136.50-50.39L136.50-50.39Q136.39-49.63 136.18-48.88L136.18-48.88L136.18-48.88Q135.97-48.12 135.59-47.47L135.59-47.47L135.59-47.47Q135.21-46.82 134.71-46.36L134.71-46.36L133.91-47.03L133.91-47.03Q134.63-47.83 134.96-49.07L134.96-49.07L134.96-49.07Q135.30-50.31 135.30-51.27L135.30-51.27L135.30-51.27Q135.30-52.15 135.05-52.93L135.05-52.93L135.05-52.93Q134.79-53.71 134.33-54.32L134.33-54.32L134.33-54.32Q133.87-54.93 133.16-55.28L133.16-55.28L133.16-55.28Q132.44-55.64 131.52-55.64L131.52-55.64L131.52-55.64Q130.18-55.64 129.44-54.86L129.44-54.86L129.44-54.86Q128.71-54.09 128.35-52.99L128.35-52.99L128.35-52.99Q127.99-51.90 127.91-50.66L127.91-50.66L127.91-50.66Q127.82-49.42 127.82-48.50L127.82-48.50L127.82-38.00L127.91-38.00L127.91-38.00Q129.42-38.00 130.36-38.07L130.36-38.07L130.36-38.07Q131.31-38.13 131.83-38.51L131.83-38.51L131.83-38.51Q132.36-38.88 132.53-39.72L132.53-39.72L132.53-39.72Q132.70-40.56 132.65-42.16L132.65-42.16L134.08-42.16L134.17-26.33L132.74-26.33L132.74-32.84L132.74-32.84Q132.74-34.27 132.04-35.40L132.04-35.40L132.04-35.40Q131.35-36.53 129.80-36.53L129.80-36.53L127.82-36.53L128.24-7.47L128.24-7.47Q128.24-6.97 128.45-6.34L128.45-6.34L128.45-6.34Q128.66-5.71 129.02-5.17L129.02-5.17L129.02-5.17Q129.38-4.62 129.88-4.24L129.88-4.24L129.88-4.24Q130.39-3.86 131.02-3.86L131.02-3.86L132.19-3.86L132.19-2.39L119.64-2.23L119.64-3.78L121.11-3.78L121.11-3.78Q121.69-3.78 122.22-4.07L122.22-4.07L122.22-4.07Q122.74-4.37 123.14-4.85L123.14-4.85L123.14-4.85Q123.54-5.33 123.77-5.90L123.77-5.90L123.77-5.90Q124.00-6.47 123.96-6.97L123.96-6.97L123.42-36.45L123.42-36.45Q122.66-36.37 121.78-36.37L121.78-36.37L121.78-36.37Q120.90-36.37 119.93-36.37ZM147.43-1.81L147.43-1.81L149.95-1.81L149.87-0.25L136.18-0.42L136.18-1.89L138.57-1.89L138.57-1.89Q139.08-1.89 139.54-2.18L139.54-2.18L139.54-2.18Q140.00-2.48 140.32-2.90L140.32-2.90L140.32-2.90Q140.63-3.32 140.82-3.82L140.82-3.82L140.82-3.82Q141.01-4.33 141.01-4.75L141.01-4.75L141.26-39.14L141.26-39.14Q141.26-40.31 140.78-40.88L140.78-40.88L140.78-40.88Q140.30-41.45 139.56-41.66L139.56-41.66L139.56-41.66Q138.83-41.87 137.92-41.82L137.92-41.82L137.92-41.82Q137.02-41.78 136.18-41.78L136.18-41.78L136.18-43.25L136.18-43.25Q138.57-43.25 140.90-43.29L140.90-43.29L140.90-43.29Q143.24-43.34 145.63-43.34L145.63-43.34L145.63-43.34Q148.65-43.34 151.02-42.69L151.02-42.69L151.02-42.69Q153.40-42.03 155.04-40.61L155.04-40.61L155.04-40.61Q156.67-39.18 157.51-36.93L157.51-36.93L157.51-36.93Q158.35-34.69 158.35-31.49L158.35-31.49L158.35-31.49Q158.35-29.81 157.95-27.99L157.95-27.99L157.95-27.99Q157.55-26.16 156.69-24.59L156.69-24.59L156.69-24.59Q155.83-23.01 154.47-21.92L154.47-21.92L154.47-21.92Q153.10-20.83 151.13-20.66L151.13-20.66L151.13-20.66Q153.86-19.48 155.46-17.17L155.46-17.17L155.46-17.17Q157.05-14.87 157.18-11.97L157.18-11.97L157.18-11.97Q157.26-9.20 157.41-6.45L157.41-6.45L157.41-6.45Q157.55-3.70 157.76-0.97L157.76-0.97L157.76-0.97Q157.85 0.25 158.12 1.26L158.12 1.26L158.12 1.26Q158.39 2.27 158.92 3.02L158.92 3.02L158.92 3.02Q159.44 3.78 160.31 4.20L160.31 4.20L160.31 4.20Q161.17 4.62 162.43 4.66L162.43 4.66L162.43 5.92L162.43 5.92Q160.66 5.92 159.15 5.33L159.15 5.33L159.15 5.33Q157.64 4.75 156.46 3.78L156.46 3.78L156.46 3.78Q155.29 2.81 154.53 1.55L154.53 1.55L154.53 1.55Q153.78 0.29 153.57-1.05L153.57-1.05L153.57-1.05Q153.10-3.70 153.12-6.42L153.12-6.42L153.12-6.42Q153.15-9.15 152.94-11.88L152.94-11.88L152.94-11.88Q152.85-12.98 152.56-14.42L152.56-14.42L152.56-14.42Q152.26-15.87 151.63-17.20L151.63-17.20L151.63-17.20Q151.00-18.52 150.04-19.44L150.04-19.44L150.04-19.44Q149.07-20.37 147.73-20.37L147.73-20.37L145.29-20.37L145.21-4.66L145.21-4.66Q145.21-4.20 145.38-3.70L145.38-3.70L145.38-3.70Q145.54-3.19 145.84-2.77L145.84-2.77L145.84-2.77Q146.13-2.35 146.55-2.08L146.55-2.08L146.55-2.08Q146.97-1.81 147.43-1.81ZM145.29-21.58L147.98-21.58L147.98-21.58Q149.91-21.58 151.07-22.68L151.07-22.68L151.07-22.68Q152.22-23.77 152.83-25.34L152.83-25.34L152.83-25.34Q153.44-26.92 153.63-28.72L153.63-28.72L153.63-28.72Q153.82-30.53 153.82-32.00L153.82-32.00L153.82-32.00Q153.82-33.89 153.48-35.67L153.48-35.67L153.48-35.67Q153.15-37.46 152.31-38.80L152.31-38.80L152.31-38.80Q151.47-40.14 150.02-40.96L150.02-40.96L150.02-40.96Q148.57-41.78 146.34-41.78L146.34-41.78L146.34-41.78Q146.09-41.78 145.88-41.78L145.88-41.78L145.88-41.78Q145.67-41.78 145.46-41.70L145.46-41.70L145.29-21.58ZM169.73-46.02L170.07-29.86L170.07-29.86Q171.96-29.86 173.15-29.79L173.15-29.79L173.15-29.79Q174.35-29.73 174.98-30.07L174.98-30.07L174.98-30.07Q175.61-30.40 175.80-31.33L175.80-31.33L175.80-31.33Q175.99-32.25 175.95-34.22L175.95-34.22L177.38-34.22L177.38-22.89L175.95-22.89L175.95-26.16L175.95-26.16Q175.95-26.50 175.84-26.92L175.84-26.92L175.84-26.92Q175.74-27.34 175.53-27.69L175.53-27.69L175.53-27.69Q175.32-28.05 175.02-28.30L175.02-28.30L175.02-28.30Q174.73-28.55 174.31-28.55L174.31-28.55L170.07-28.47L170.53-11.72L170.53-11.72Q171.83-11.72 173.05-11.72L173.05-11.72L173.05-11.72Q174.27-11.72 175.49-11.80L175.49-11.80L175.49-11.80Q176.28-11.84 177.02-12.26L177.02-12.26L177.02-12.26Q177.75-12.68 178.32-13.31L178.32-13.31L178.32-13.31Q178.89-13.94 179.22-14.72L179.22-14.72L179.22-14.72Q179.56-15.50 179.56-16.25L179.56-16.25L179.64-22.17L181.11-22.17L180.99-10.41L180.99-10.41Q176.16-10.33 171.29-10.18L171.29-10.18L171.29-10.18Q166.42-10.04 161.59-9.91L161.59-9.91L161.50-11.42L161.50-11.42Q162.59-11.42 163.45-11.44L163.45-11.44L163.45-11.44Q164.32-11.46 164.90-11.76L164.90-11.76L164.90-11.76Q165.49-12.05 165.81-12.72L165.81-12.72L165.81-12.72Q166.12-13.40 166.12-14.70L166.12-14.70L166.12-14.95L165.53-42.03L165.53-42.03Q165.49-43.34 165.16-44.11L165.16-44.11L165.16-44.11Q164.82-44.89 164.21-45.27L164.21-45.27L164.21-45.27Q163.60-45.65 162.70-45.73L162.70-45.73L162.70-45.73Q161.80-45.81 160.62-45.77L160.62-45.77L160.54-47.20L180.06-47.75L180.15-35.78L178.68-35.78L178.59-42.03L178.59-42.03Q178.59-43.67 177.90-44.89L177.90-44.89L177.90-44.89Q177.21-46.11 175.32-46.11L175.32-46.11L175.32-46.11Q173.89-46.11 172.52-46.07L172.52-46.07L172.52-46.07Q171.16-46.02 169.73-46.02L169.73-46.02ZM197.70-6.17L197.87-10.41L197.87-10.41Q197.36-9.53 196.52-8.78L196.52-8.78L196.52-8.78Q195.68-8.02 194.72-7.43L194.72-7.43L194.72-7.43Q193.75-6.84 192.70-6.51L192.70-6.51L192.70-6.51Q191.65-6.17 190.73-6.17L190.73-6.17L190.73-6.17Q189.30-6.17 188.25-6.78L188.25-6.78L188.25-6.78Q187.20-7.39 186.49-8.38L186.49-8.38L186.49-8.38Q185.77-9.36 185.42-10.60L185.42-10.60L185.42-10.60Q185.06-11.84 185.06-13.14L185.06-13.14L185.06-13.14Q185.06-15.58 186.11-17.45L186.11-17.45L186.11-17.45Q187.16-19.32 188.71-20.87L188.71-20.87L188.71-20.87Q190.27-22.42 192.11-23.85L192.11-23.85L192.11-23.85Q193.96-25.28 195.52-26.92L195.52-26.92L195.52-26.92Q197.07-28.55 198.12-30.53L198.12-30.53L198.12-30.53Q199.17-32.50 199.17-35.19L199.17-35.19L199.17-35.19Q199.21-36.49 198.92-37.92L198.92-37.92L198.92-37.92Q198.62-39.35 197.89-40.54L197.89-40.54L197.89-40.54Q197.15-41.74 196.02-42.50L196.02-42.50L196.02-42.50Q194.89-43.25 193.33-43.25L193.33-43.25L193.33-43.25Q191.65-43.25 190.58-42.45L190.58-42.45L190.58-42.45Q189.51-41.66 188.88-40.42L188.88-40.42L188.88-40.42Q188.25-39.18 188.02-37.65L188.02-37.65L188.02-37.65Q187.79-36.11 187.79-34.64L187.79-34.64L187.79-34.64Q187.79-34.06 187.87-33.17L187.87-33.17L187.87-33.17Q187.96-32.29 188.17-31.47L188.17-31.47L188.17-31.47Q188.38-30.65 188.73-30.07L188.73-30.07L188.73-30.07Q189.09-29.48 189.64-29.48L189.64-29.48L189.64-29.48Q190.22-29.48 190.58-29.86L190.58-29.86L190.58-29.86Q190.94-30.23 191.13-30.76L191.13-30.76L191.13-30.76Q191.32-31.28 191.34-31.87L191.34-31.87L191.34-31.87Q191.36-32.46 191.32-32.92L191.32-32.92L192.79-33.01L192.79-33.01Q192.83-32.04 192.68-31.14L192.68-31.14L192.68-31.14Q192.53-30.23 192.16-29.52L192.16-29.52L192.16-29.52Q191.78-28.81 191.15-28.39L191.15-28.39L191.15-28.39Q190.52-27.97 189.64-27.97L189.64-27.97L189.64-27.97Q188.42-27.97 187.60-28.66L187.60-28.66L187.60-28.66Q186.78-29.35 186.32-30.38L186.32-30.38L186.32-30.38Q185.86-31.41 185.67-32.59L185.67-32.59L185.67-32.59Q185.48-33.76 185.48-34.73L185.48-34.73L185.48-34.73Q185.48-36.62 185.98-38.42L185.98-38.42L185.98-38.42Q186.49-40.23 187.50-41.68L187.50-41.68L187.50-41.68Q188.50-43.13 190.06-44.01L190.06-44.01L190.06-44.01Q191.61-44.89 193.75-44.89L193.75-44.89L193.75-44.89Q196.44-44.89 198.20-43.59L198.20-43.59L198.20-43.59Q199.97-42.29 201.02-40.29L201.02-40.29L201.02-40.29Q202.07-38.30 202.51-35.97L202.51-35.97L202.51-35.97Q202.95-33.64 202.95-31.58L202.95-31.58L202.95-31.58Q202.95-26.25 202.57-20.98L202.57-20.98L202.57-20.98Q202.19-15.71 202.19-10.33L202.19-10.33L202.19-10.33Q202.19-9.15 202.49-8.55L202.49-8.55L202.49-8.55Q202.78-7.94 203.33-7.68L203.33-7.68L203.33-7.68Q203.87-7.43 204.65-7.39L204.65-7.39L204.65-7.39Q205.43-7.35 206.39-7.31L206.39-7.31L206.39-5.84L206.39-5.84Q204.17-5.92 202.00-5.98L202.00-5.98L202.00-5.98Q199.84-6.05 197.70-6.17L197.70-6.17ZM193.04-8.86L193.04-8.86L193.04-8.86Q193.63-8.86 194.32-9.18L194.32-9.18L194.32-9.18Q195.01-9.49 195.68-10.06L195.68-10.06L195.68-10.06Q196.36-10.62 196.96-11.36L196.96-11.36L196.96-11.36Q197.57-12.09 198.04-12.98L198.04-12.98L198.83-28.13L198.83-28.13Q197.62-26.46 196.00-24.80L196.00-24.80L196.00-24.80Q194.38-23.14 192.93-21.42L192.93-21.42L192.93-21.42Q191.48-19.69 190.46-17.85L190.46-17.85L190.46-17.85Q189.43-16.00 189.43-13.94L189.43-13.94L189.43-13.94Q189.43-13.19 189.64-12.28L189.64-12.28L189.64-12.28Q189.85-11.38 190.29-10.62L190.29-10.62L190.29-10.62Q190.73-9.87 191.42-9.36L191.42-9.36L191.42-9.36Q192.11-8.86 193.04-8.86ZM215.08-49.89L214.66-25.53L214.66-25.53Q215.29-25.32 215.99-25.07L215.99-25.07L215.99-25.07Q216.68-24.82 217.39-24.44L217.39-24.44L217.39-24.44Q217.65-24.36 217.88-24.36L217.88-24.36L217.88-24.36Q218.11-24.36 218.36-24.36L218.36-24.36L218.36-24.36Q219.75-24.36 220.90-24.90L220.90-24.90L220.90-24.90Q222.05-25.45 222.92-26.39L222.92-26.39L222.92-26.39Q223.78-27.34 224.24-28.58L224.24-28.58L224.24-28.58Q224.70-29.81 224.70-31.20L224.70-31.20L224.70-31.20Q224.70-32.17 224.43-33.05L224.43-33.05L224.43-33.05Q224.15-33.93 223.80-34.79L223.80-34.79L223.80-34.79Q223.44-35.65 223.17-36.51L223.17-36.51L223.17-36.51Q222.89-37.37 222.89-38.34L222.89-38.34L222.89-38.34Q222.89-39.60 223.34-40.69L223.34-40.69L223.34-40.69Q223.78-41.78 224.55-42.60L224.55-42.60L224.55-42.60Q225.33-43.42 226.40-43.90L226.40-43.90L226.40-43.90Q227.47-44.39 228.77-44.39L228.77-44.39L228.94-43.50L228.94-43.50Q228.61-43.42 228.08-43.27L228.08-43.27L228.08-43.27Q227.56-43.13 227.05-42.77L227.05-42.77L227.05-42.77Q226.55-42.41 226.19-41.87L226.19-41.87L226.19-41.87Q225.83-41.32 225.83-40.44L225.83-40.44L225.83-40.44Q225.83-39.09 226.32-38.09L226.32-38.09L226.32-38.09Q226.80-37.08 227.39-36.07L227.39-36.07L227.39-36.07Q227.98-35.06 228.46-33.93L228.46-33.93L228.46-33.93Q228.94-32.80 228.94-31.28L228.94-31.28L228.94-31.28Q228.94-29.48 228.31-27.97L228.31-27.97L228.31-27.97Q227.68-26.46 226.57-25.36L226.57-25.36L226.57-25.36Q225.46-24.27 223.94-23.66L223.94-23.66L223.94-23.66Q222.43-23.05 220.67-23.05L220.67-23.05L220.67-23.05Q220.54-23.05 220.19-23.05L220.19-23.05L220.19-23.05Q219.83-23.05 219.37-23.14L219.37-23.14L219.37-23.14Q222.10-20.91 223.88-18.12L223.88-18.12L223.88-18.12Q225.67-15.33 226.51-12.22L226.51-12.22L226.51-12.22Q226.76-11.34 227.03-9.62L227.03-9.62L227.03-9.62Q227.30-7.89 227.66-5.84L227.66-5.84L227.66-5.84Q228.02-3.78 228.54-1.64L228.54-1.64L228.54-1.64Q229.07 0.50 229.78 2.27L229.78 2.27L229.78 2.27Q230.50 4.03 231.46 5.17L231.46 5.17L231.46 5.17Q232.43 6.30 233.73 6.30L233.73 6.30L233.73 6.30Q234.32 6.30 234.69 6.05L234.69 6.05L234.69 6.05Q235.07 5.79 235.32 5.40L235.32 5.40L235.32 5.40Q235.58 5.00 235.74 4.47L235.74 4.47L235.74 4.47Q235.91 3.95 236.08 3.44L236.08 3.44L237.09 3.61L237.09 3.61Q236.96 4.37 236.71 5.08L236.71 5.08L236.71 5.08Q236.46 5.79 235.95 6.36L235.95 6.36L235.95 6.36Q235.45 6.93 234.69 7.29L234.69 7.29L234.69 7.29Q233.94 7.64 232.80 7.64L232.80 7.64L232.80 7.64Q230.92 7.64 229.53 6.70L229.53 6.70L229.53 6.70Q228.14 5.75 227.14 4.20L227.14 4.20L227.14 4.20Q226.13 2.65 225.46 0.69L225.46 0.69L225.46 0.69Q224.78-1.26 224.30-3.25L224.30-3.25L224.30-3.25Q223.82-5.25 223.48-7.12L223.48-7.12L223.48-7.12Q223.15-8.99 222.81-10.33L222.81-10.33L222.81-10.33Q222.31-12.26 221.63-14.24L221.63-14.24L221.63-14.24Q220.96-16.21 220.02-18.06L220.02-18.06L220.02-18.06Q219.07-19.90 217.77-21.54L217.77-21.54L217.77-21.54Q216.47-23.18 214.66-24.44L214.66-24.44L214.41-10.25L214.41-10.25Q214.37-8.99 214.60-8.29L214.60-8.29L214.60-8.29Q214.83-7.60 215.34-7.29L215.34-7.29L215.34-7.29Q215.84-6.97 216.60-6.91L216.60-6.91L216.60-6.91Q217.35-6.84 218.44-6.89L218.44-6.89L218.44-5.42L205.89-5.58L205.89-7.05L205.89-7.05Q206.64-7.05 207.40-7.12L207.40-7.12L207.40-7.12Q208.16-7.18 208.76-7.45L208.76-7.45L208.76-7.45Q209.37-7.73 209.75-8.29L209.75-8.29L209.75-8.29Q210.13-8.86 210.17-9.91L210.17-9.91L210.67-49.80L210.67-49.80Q210.72-50.98 210.44-51.61L210.44-51.61L210.44-51.61Q210.17-52.24 209.60-52.55L209.60-52.55L209.60-52.55Q209.04-52.87 208.24-52.93L208.24-52.93L208.24-52.93Q207.44-52.99 206.48-52.99L206.48-52.99L206.48-54.42L219.03-54.34L219.03-52.99L217.48-52.99L217.48-52.99Q216.13-52.99 215.61-52.03L215.61-52.03L215.61-52.03Q215.08-51.06 215.08-49.89L215.08-49.89ZM248.72-51.36L249.22-30.53L247.59-30.53L247.33-39.30L247.33-39.30Q247.29-40.48 247.00-41.85L247.00-41.85L247.00-41.85Q246.70-43.21 246.05-44.36L246.05-44.36L246.05-44.36Q245.40-45.52 244.42-46.28L244.42-46.28L244.42-46.28Q243.43-47.03 242.00-47.03L242.00-47.03L242.00-47.03Q240.36-47.03 239.42-46.07L239.42-46.07L239.42-46.07Q238.47-45.10 237.97-43.63L237.97-43.63L237.97-43.63Q237.47-42.16 237.34-40.46L237.34-40.46L237.34-40.46Q237.21-38.76 237.21-37.33L237.21-37.33L237.21-37.33Q237.21-34.77 237.91-32.77L237.91-32.77L237.91-32.77Q238.60-30.78 239.63-29.21L239.63-29.21L239.63-29.21Q240.66-27.63 241.85-26.48L241.85-26.48L241.85-26.48Q243.05-25.32 244.06-24.44L244.06-24.44L244.06-24.44Q245.70-23.01 246.85-21.58L246.85-21.58L246.85-21.58Q248.01-20.16 248.70-18.64L248.70-18.64L248.70-18.64Q249.39-17.13 249.71-15.47L249.71-15.47L249.71-15.47Q250.02-13.82 250.02-11.97L250.02-11.97L250.02-11.97Q250.02-9.45 249.37-7.37L249.37-7.37L249.37-7.37Q248.72-5.29 247.48-3.80L247.48-3.80L247.48-3.80Q246.24-2.31 244.46-1.49L244.46-1.49L244.46-1.49Q242.67-0.67 240.36-0.67L240.36-0.67L240.36-0.67Q238.68-0.67 237.21-1.22L237.21-1.22L237.21-1.22Q235.74-1.76 234.63-2.77L234.63-2.77L234.63-2.77Q233.52-3.78 232.87-5.19L232.87-5.19L232.87-5.19Q232.22-6.59 232.22-8.36L232.22-8.36L232.22-8.36Q232.22-9.83 232.74-11.06L232.74-11.06L232.74-11.06Q233.27-12.30 234.21-13.19L234.21-13.19L234.21-13.19Q235.16-14.07 236.40-14.55L236.40-14.55L236.40-14.55Q237.63-15.03 239.10-15.03L239.10-15.03L239.10-15.03Q240.11-15.03 241.08-14.78L241.08-14.78L240.66-13.31L240.66-13.31Q240.24-13.48 239.82-13.54L239.82-13.54L239.82-13.54Q239.40-13.61 239.02-13.61L239.02-13.61L239.02-13.61Q236.67-13.61 235.18-12.14L235.18-12.14L235.18-12.14Q233.69-10.67 233.69-8.36L233.69-8.36L233.69-8.36Q233.69-7.10 234.15-5.98L234.15-5.98L234.15-5.98Q234.61-4.87 235.43-4.03L235.43-4.03L235.43-4.03Q236.25-3.19 237.34-2.71L237.34-2.71L237.34-2.71Q238.43-2.23 239.69-2.23L239.69-2.23L239.69-2.23Q241.41-2.23 242.55-3.21L242.55-3.21L242.55-3.21Q243.68-4.20 244.33-5.69L244.33-5.69L244.33-5.69Q244.98-7.18 245.26-8.88L245.26-8.88L245.26-8.88Q245.53-10.58 245.53-12.05L245.53-12.05L245.53-12.05Q245.53-14.82 244.63-16.90L244.63-16.90L244.63-16.90Q243.72-18.98 242.38-20.28L242.38-20.28L242.38-20.28Q240.70-21.92 238.96-23.62L238.96-23.62L238.96-23.62Q237.21-25.32 235.81-27.29L235.81-27.29L235.81-27.29Q234.40-29.27 233.52-31.66L233.52-31.66L233.52-31.66Q232.64-34.06 232.64-37.08L232.64-37.08L232.64-37.08Q232.64-42.83 234.95-45.79L234.95-45.79L234.95-45.79Q237.26-48.75 241.08-48.75L241.08-48.75L241.08-48.75Q243.13-48.75 244.71-47.77L244.71-47.77L244.71-47.77Q246.28-46.78 247.25-44.97L247.25-44.97L247.08-51.27L248.72-51.36ZM273.75 7.47L278.83-17.97L268.88-47.83L268.88-47.83Q268.41-49.26 267.20-49.82L267.20-49.82L267.20-49.82Q265.98-50.39 264.55-50.39L264.55-50.39L264.55-51.52L276.10-51.52L276.10-50.39L275.05-50.39L275.05-50.39Q274.33-50.39 273.71-49.74L273.71-49.74L273.71-49.74Q273.08-49.09 273.08-48.42L273.08-48.42L273.08-48.42Q273.08-48.33 273.45-47.14L273.45-47.14L273.45-47.14Q273.83-45.94 274.44-44.05L274.44-44.05L274.44-44.05Q275.05-42.16 275.83-39.79L275.83-39.79L275.83-39.79Q276.60-37.42 277.40-34.98L277.40-34.98L277.40-34.98Q278.20-32.54 278.95-30.26L278.95-30.26L278.95-30.26Q279.71-27.97 280.30-26.25L280.30-26.25L280.30-26.25Q281.26-31.33 281.94-34.71L281.94-34.71L281.94-34.71Q282.61-38.09 283.03-40.19L283.03-40.19L283.03-40.19Q283.45-42.29 283.66-43.34L283.66-43.34L283.66-43.34Q283.87-44.39 283.97-44.81L283.97-44.81L283.97-44.81Q284.08-45.23 284.08-45.20L284.08-45.20L284.08-45.20Q284.08-45.18 284.08-45.23L284.08-45.23L284.08-45.23Q284.08-45.65 283.91-46.13L283.91-46.13L283.91-46.13Q283.74-46.61 283.45-47.03L283.45-47.03L283.45-47.03Q283.15-47.45 282.75-47.72L282.75-47.72L282.75-47.72Q282.36-48.00 281.85-48.00L281.85-48.00L279.71-48.00L279.71-49.09L291.22-49.09L291.22-48.00L289.49-48.00L289.49-48.00Q288.95-48.00 288.42-47.72L288.42-47.72L288.42-47.72Q287.90-47.45 287.50-47.01L287.50-47.01L287.50-47.01Q287.10-46.57 286.81-46.07L286.81-46.07L286.81-46.07Q286.51-45.56 286.39-45.06L286.39-45.06L276.10 7.47L276.10 7.47Q275.76 9.20 275.13 11.06L275.13 11.06L275.13 11.06Q274.50 12.93 273.45 14.51L273.45 14.51L273.45 14.51Q272.40 16.08 270.89 17.11L270.89 17.11L270.89 17.11Q269.38 18.14 267.24 18.14L267.24 18.14L267.24 18.14Q265.77 18.14 264.59 17.55L264.59 17.55L264.59 17.55Q263.42 16.96 262.56 16.00L262.56 16.00L262.56 16.00Q261.70 15.03 261.23 13.77L261.23 13.77L261.23 13.77Q260.77 12.51 260.77 11.17L260.77 11.17L260.77 11.17Q260.77 10.12 261.04 8.97L261.04 8.97L261.04 8.97Q261.32 7.81 261.91 6.74L261.91 6.74L261.91 6.74Q262.49 5.67 263.42 4.77L263.42 4.77L263.42 4.77Q264.34 3.86 265.68 3.36L265.68 3.36L266.69 3.86L266.69 3.86Q265.01 4.79 264.28 6.59L264.28 6.59L264.28 6.59Q263.54 8.40 263.54 10.25L263.54 10.25L263.54 10.25Q263.54 11.25 263.79 12.32L263.79 12.32L263.79 12.32Q264.05 13.40 264.57 14.28L264.57 14.28L264.57 14.28Q265.10 15.16 265.94 15.71L265.94 15.71L265.94 15.71Q266.78 16.25 267.99 16.25L267.99 16.25L267.99 16.25Q269.59 16.25 270.60 15.33L270.60 15.33L270.60 15.33Q271.61 14.40 272.21 13.06L272.21 13.06L272.21 13.06Q272.82 11.72 273.16 10.20L273.16 10.20L273.16 10.20Q273.50 8.69 273.75 7.47L273.75 7.47ZM310.15-28.72L310.15-28.72L310.15-28.72Q310.15-26.96 310.13-24.71L310.13-24.71L310.13-24.71Q310.11-22.47 309.88-20.09L309.88-20.09L309.88-20.09Q309.65-17.72 309.13-15.43L309.13-15.43L309.13-15.43Q308.60-13.14 307.53-11.36L307.53-11.36L307.53-11.36Q306.46-9.57 304.80-8.48L304.80-8.48L304.80-8.48Q303.14-7.39 300.66-7.39L300.66-7.39L300.66-7.39Q298.44-7.39 296.91-8.38L296.91-8.38L296.91-8.38Q295.37-9.36 294.37-10.94L294.37-10.94L294.37-10.94Q293.36-12.51 292.77-14.55L292.77-14.55L292.77-14.55Q292.18-16.59 291.89-18.69L291.89-18.69L291.89-18.69Q291.59-20.79 291.53-22.78L291.53-22.78L291.53-22.78Q291.47-24.78 291.47-26.33L291.47-26.33L291.47-26.33Q291.47-28.18 291.51-30.55L291.51-30.55L291.51-30.55Q291.55-32.92 291.80-35.40L291.80-35.40L291.80-35.40Q292.06-37.88 292.64-40.23L292.64-40.23L292.64-40.23Q293.23-42.58 294.32-44.43L294.32-44.43L294.32-44.43Q295.42-46.28 297.14-47.39L297.14-47.39L297.14-47.39Q298.86-48.50 301.38-48.50L301.38-48.50L301.38-48.50Q303.56-48.50 305.05-47.62L305.05-47.62L305.05-47.62Q306.54-46.74 307.51-45.25L307.51-45.25L307.51-45.25Q308.47-43.76 309.02-41.78L309.02-41.78L309.02-41.78Q309.57-39.81 309.82-37.60L309.82-37.60L309.82-37.60Q310.07-35.40 310.11-33.11L310.11-33.11L310.11-33.11Q310.15-30.82 310.15-28.72ZM301.29-47.03L301.29-47.03L301.29-47.03Q299.95-47.03 299.05-46.11L299.05-46.11L299.05-46.11Q298.14-45.18 297.56-43.59L297.56-43.59L297.56-43.59Q296.97-41.99 296.63-39.89L296.63-39.89L296.63-39.89Q296.30-37.79 296.15-35.44L296.15-35.44L296.15-35.44Q296.00-33.09 295.98-30.65L295.98-30.65L295.98-30.65Q295.96-28.22 295.96-25.95L295.96-25.95L295.96-25.95Q295.96-24.31 295.98-22.40L295.98-22.40L295.98-22.40Q296.00-20.49 296.13-18.58L296.13-18.58L296.13-18.58Q296.25-16.67 296.55-14.91L296.55-14.91L296.55-14.91Q296.84-13.14 297.39-11.78L297.39-11.78L297.39-11.78Q297.93-10.41 298.75-9.60L298.75-9.60L298.75-9.60Q299.57-8.78 300.79-8.78L300.79-8.78L300.79-8.78Q302.01-8.78 302.87-9.64L302.87-9.64L302.87-9.64Q303.73-10.50 304.28-11.93L304.28-11.93L304.28-11.93Q304.82-13.35 305.12-15.22L305.12-15.22L305.12-15.22Q305.41-17.09 305.56-19.13L305.56-19.13L305.56-19.13Q305.70-21.16 305.72-23.22L305.72-23.22L305.72-23.22Q305.75-25.28 305.75-27.08L305.75-27.08L305.75-27.08Q305.75-31.07 305.68-34.69L305.68-34.69L305.68-34.69Q305.62-38.30 305.20-41.05L305.20-41.05L305.20-41.05Q304.78-43.80 303.88-45.41L303.88-45.41L303.88-45.41Q302.97-47.03 301.29-47.03ZM339.13-8.86L330.10-9.03L330.10-9.03Q330.10-10.20 330.14-11.36L330.14-11.36L330.14-11.36Q330.18-12.51 330.27-13.61L330.27-13.61L330.27-13.61Q329.18-11.72 327.64-10.67L327.64-10.67L327.64-10.67Q326.11-9.62 324.43-9.62L324.43-9.62L324.43-9.62Q322.50-9.62 321.16-10.62L321.16-10.62L321.16-10.62Q319.81-11.63 318.95-13.25L318.95-13.25L318.95-13.25Q318.09-14.87 317.61-16.90L317.61-16.90L317.61-16.90Q317.13-18.94 316.89-20.95L316.89-20.95L316.89-20.95Q316.66-22.97 316.62-24.78L316.62-24.78L316.62-24.78Q316.58-26.58 316.58-27.80L316.58-27.80L316.58-27.80Q316.58-31.96 316.79-36.01L316.79-36.01L316.79-36.01Q317.00-40.06 317.00-44.13L317.00-44.13L317.00-44.13Q317.00-45.31 316.54-45.88L316.54-45.88L316.54-45.88Q316.08-46.44 315.36-46.63L315.36-46.63L315.36-46.63Q314.65-46.82 313.77-46.80L313.77-46.80L313.77-46.80Q312.88-46.78 312.04-46.78L312.04-46.78L312.04-48.25L321.32-48.25L321.32-48.25Q321.24-42.87 321.03-37.50L321.03-37.50L321.03-37.50Q320.82-32.12 320.82-26.75L320.82-26.75L320.82-26.75Q320.82-25.95 320.80-24.48L320.80-24.48L320.80-24.48Q320.78-23.01 320.86-21.25L320.86-21.25L320.86-21.25Q320.95-19.48 321.16-17.68L321.16-17.68L321.16-17.68Q321.37-15.87 321.85-14.38L321.85-14.38L321.85-14.38Q322.33-12.89 323.11-11.95L323.11-11.95L323.11-11.95Q323.89-11.00 325.10-11.00L325.10-11.00L325.10-11.00Q325.82-11.00 326.64-11.63L326.64-11.63L326.64-11.63Q327.46-12.26 328.21-13.21L328.21-13.21L328.21-13.21Q328.97-14.15 329.55-15.29L329.55-15.29L329.55-15.29Q330.14-16.42 330.35-17.47L330.35-17.47L330.35-17.47Q330.44-24.48 330.35-30.36L330.35-30.36L330.35-30.36Q330.27-36.24 330.27-41.11L330.27-41.11L330.27-41.11Q330.27-42.29 329.81-42.85L329.81-42.85L329.81-42.85Q329.34-43.42 328.61-43.63L328.61-43.63L328.61-43.63Q327.88-43.84 326.99-43.80L326.99-43.80L326.99-43.80Q326.11-43.76 325.27-43.76L325.27-43.76L325.27-45.23L334.55-45.23L334.47-13.23L334.47-13.23Q334.47-12.39 335.06-11.44L335.06-11.44L335.06-11.44Q335.64-10.50 336.61-10.41L336.61-10.41L336.61-10.41Q337.28-10.41 337.87-10.41L337.87-10.41L337.87-10.41Q338.46-10.41 339.13-10.33L339.13-10.33L339.13-8.86ZM377.01-28.72L377.01-28.72L377.01-28.72Q377.01-26.96 376.98-24.71L376.98-24.71L376.98-24.71Q376.96-22.47 376.73-20.09L376.73-20.09L376.73-20.09Q376.50-17.72 375.98-15.43L375.98-15.43L375.98-15.43Q375.45-13.14 374.38-11.36L374.38-11.36L374.38-11.36Q373.31-9.57 371.65-8.48L371.65-8.48L371.65-8.48Q369.99-7.39 367.52-7.39L367.52-7.39L367.52-7.39Q365.29-7.39 363.76-8.38L363.76-8.38L363.76-8.38Q362.22-9.36 361.22-10.94L361.22-10.94L361.22-10.94Q360.21-12.51 359.62-14.55L359.62-14.55L359.62-14.55Q359.03-16.59 358.74-18.69L358.74-18.69L358.74-18.69Q358.45-20.79 358.38-22.78L358.38-22.78L358.38-22.78Q358.32-24.78 358.32-26.33L358.32-26.33L358.32-26.33Q358.32-28.18 358.36-30.55L358.36-30.55L358.36-30.55Q358.40-32.92 358.66-35.40L358.66-35.40L358.66-35.40Q358.91-37.88 359.50-40.23L359.50-40.23L359.50-40.23Q360.08-42.58 361.17-44.43L361.17-44.43L361.17-44.43Q362.27-46.28 363.99-47.39L363.99-47.39L363.99-47.39Q365.71-48.50 368.23-48.50L368.23-48.50L368.23-48.50Q370.41-48.50 371.90-47.62L371.90-47.62L371.90-47.62Q373.39-46.74 374.36-45.25L374.36-45.25L374.36-45.25Q375.33-43.76 375.87-41.78L375.87-41.78L375.87-41.78Q376.42-39.81 376.67-37.60L376.67-37.60L376.67-37.60Q376.92-35.40 376.96-33.11L376.96-33.11L376.96-33.11Q377.01-30.82 377.01-28.72ZM368.15-47.03L368.15-47.03L368.15-47.03Q366.80-47.03 365.90-46.11L365.90-46.11L365.90-46.11Q365.00-45.18 364.41-43.59L364.41-43.59L364.41-43.59Q363.82-41.99 363.48-39.89L363.48-39.89L363.48-39.89Q363.15-37.79 363.00-35.44L363.00-35.44L363.00-35.44Q362.85-33.09 362.83-30.65L362.83-30.65L362.83-30.65Q362.81-28.22 362.81-25.95L362.81-25.95L362.81-25.95Q362.81-24.31 362.83-22.40L362.83-22.40L362.83-22.40Q362.85-20.49 362.98-18.58L362.98-18.58L362.98-18.58Q363.11-16.67 363.40-14.91L363.40-14.91L363.40-14.91Q363.69-13.14 364.24-11.78L364.24-11.78L364.24-11.78Q364.79-10.41 365.60-9.60L365.60-9.60L365.60-9.60Q366.42-8.78 367.64-8.78L367.64-8.78L367.64-8.78Q368.86-8.78 369.72-9.64L369.72-9.64L369.72-9.64Q370.58-10.50 371.13-11.93L371.13-11.93L371.13-11.93Q371.67-13.35 371.97-15.22L371.97-15.22L371.97-15.22Q372.26-17.09 372.41-19.13L372.41-19.13L372.41-19.13Q372.55-21.16 372.58-23.22L372.58-23.22L372.58-23.22Q372.60-25.28 372.60-27.08L372.60-27.08L372.60-27.08Q372.60-31.07 372.53-34.69L372.53-34.69L372.53-34.69Q372.47-38.30 372.05-41.05L372.05-41.05L372.05-41.05Q371.63-43.80 370.73-45.41L370.73-45.41L370.73-45.41Q369.83-47.03 368.15-47.03ZM405.98-8.86L396.95-9.03L396.95-9.03Q396.95-10.20 396.99-11.36L396.99-11.36L396.99-11.36Q397.04-12.51 397.12-13.61L397.12-13.61L397.12-13.61Q396.03-11.72 394.50-10.67L394.50-10.67L394.50-10.67Q392.96-9.62 391.28-9.62L391.28-9.62L391.28-9.62Q389.35-9.62 388.01-10.62L388.01-10.62L388.01-10.62Q386.66-11.63 385.80-13.25L385.80-13.25L385.80-13.25Q384.94-14.87 384.46-16.90L384.46-16.90L384.46-16.90Q383.98-18.94 383.75-20.95L383.75-20.95L383.75-20.95Q383.51-22.97 383.47-24.78L383.47-24.78L383.47-24.78Q383.43-26.58 383.43-27.80L383.43-27.80L383.43-27.80Q383.43-31.96 383.64-36.01L383.64-36.01L383.64-36.01Q383.85-40.06 383.85-44.13L383.85-44.13L383.85-44.13Q383.85-45.31 383.39-45.88L383.39-45.88L383.39-45.88Q382.93-46.44 382.21-46.63L382.21-46.63L382.21-46.63Q381.50-46.82 380.62-46.80L380.62-46.80L380.62-46.80Q379.74-46.78 378.90-46.78L378.90-46.78L378.90-48.25L388.18-48.25L388.18-48.25Q388.09-42.87 387.88-37.50L387.88-37.50L387.88-37.50Q387.67-32.12 387.67-26.75L387.67-26.75L387.67-26.75Q387.67-25.95 387.65-24.48L387.65-24.48L387.65-24.48Q387.63-23.01 387.71-21.25L387.71-21.25L387.71-21.25Q387.80-19.48 388.01-17.68L388.01-17.68L388.01-17.68Q388.22-15.87 388.70-14.38L388.70-14.38L388.70-14.38Q389.18-12.89 389.96-11.95L389.96-11.95L389.96-11.95Q390.74-11.00 391.96-11.00L391.96-11.00L391.96-11.00Q392.67-11.00 393.49-11.63L393.49-11.63L393.49-11.63Q394.31-12.26 395.06-13.21L395.06-13.21L395.06-13.21Q395.82-14.15 396.41-15.29L396.41-15.29L396.41-15.29Q396.99-16.42 397.20-17.47L397.20-17.47L397.20-17.47Q397.29-24.48 397.20-30.36L397.20-30.36L397.20-30.36Q397.12-36.24 397.12-41.11L397.12-41.11L397.12-41.11Q397.12-42.29 396.66-42.85L396.66-42.85L396.66-42.85Q396.20-43.42 395.46-43.63L395.46-43.63L395.46-43.63Q394.73-43.84 393.84-43.80L393.84-43.80L393.84-43.80Q392.96-43.76 392.12-43.76L392.12-43.76L392.12-45.23L401.40-45.23L401.32-13.23L401.32-13.23Q401.32-12.39 401.91-11.44L401.91-11.44L401.91-11.44Q402.50-10.50 403.46-10.41L403.46-10.41L403.46-10.41Q404.13-10.41 404.72-10.41L404.72-10.41L404.72-10.41Q405.31-10.41 405.98-10.33L405.98-10.33L405.98-8.86ZM415.09-57.61L415.01-43.67L424.04-43.67L424.04-42.24L418.96-42.24L418.96-42.24Q418.07-42.24 417.34-41.76L417.34-41.76L417.34-41.76Q416.60-41.28 416.10-40.52L416.10-40.52L416.10-40.52Q415.60-39.77 415.32-38.88L415.32-38.88L415.32-38.88Q415.05-38.00 415.01-37.25L415.01-37.25L414.84-6.17L414.84-6.17Q414.84-5.12 414.90-3.70L414.90-3.70L414.90-3.70Q414.97-2.27 415.34-0.97L415.34-0.97L415.34-0.97Q415.72 0.34 416.52 1.24L416.52 1.24L416.52 1.24Q417.32 2.14 418.79 2.14L418.79 2.14L418.79 2.14Q419.80 2.14 420.43 1.64L420.43 1.64L420.43 1.64Q421.06 1.13 421.41 0.38L421.41 0.38L421.41 0.38Q421.77-0.38 421.90-1.26L421.90-1.26L421.90-1.26Q422.02-2.14 421.98-2.94L421.98-2.94L423.53-2.56L423.53-2.56Q423.53-0.55 423.01 0.78L423.01 0.78L423.01 0.78Q422.48 2.10 421.66 2.86L421.66 2.86L421.66 2.86Q420.85 3.61 419.80 3.91L419.80 3.91L419.80 3.91Q418.75 4.20 417.70 4.20L417.70 4.20L417.70 4.20Q415.64 4.20 414.27 3.15L414.27 3.15L414.27 3.15Q412.91 2.10 412.11 0.52L412.11 0.52L412.11 0.52Q411.31-1.05 410.98-2.94L410.98-2.94L410.98-2.94Q410.64-4.83 410.64-6.47L410.64-6.47L410.81-42.24L405.48-42.24L405.48-43.67L410.81-43.67L410.89-54.00L415.09-57.61ZM433.40-19.02L433.40-19.02L433.40-19.02Q433.40-16.54 433.55-14.05L433.55-14.05L433.55-14.05Q433.70-11.55 433.86-9.03L433.86-9.03L432.56-9.03L432.56-9.03Q432.31-12.14 432.04-15.26L432.04-15.26L432.04-15.26Q431.76-18.39 431.76-21.50L431.76-21.50L431.76-21.50Q431.76-23.64 432.35-25.47L432.35-25.47L432.35-25.47Q432.94-27.29 433.84-29.02L433.84-29.02L433.84-29.02Q434.75-30.74 435.77-32.40L435.77-32.40L435.77-32.40Q436.80-34.06 437.71-35.84L437.71-35.84L437.71-35.84Q438.61-37.63 439.20-39.62L439.20-39.62L439.20-39.62Q439.78-41.61 439.78-43.97L439.78-43.97L439.78-43.97Q439.78-44.89 439.76-46.30L439.76-46.30L439.76-46.30Q439.74-47.70 439.57-49.26L439.57-49.26L439.57-49.26Q439.41-50.81 439.07-52.36L439.07-52.36L439.07-52.36Q438.73-53.92 438.13-55.16L438.13-55.16L438.13-55.16Q437.52-56.40 436.55-57.17L436.55-57.17L436.55-57.17Q435.58-57.95 434.20-57.95L434.20-57.95L434.20-57.95Q432.73-57.95 431.47-57.19L431.47-57.19L431.47-57.19Q430.21-56.44 429.31-55.26L429.31-55.26L429.31-55.26Q428.40-54.09 427.90-52.70L427.90-52.70L427.90-52.70Q427.40-51.31 427.40-50.05L427.40-50.05L427.40-50.05Q427.40-48.04 427.35-46.00L427.35-46.00L427.35-46.00Q427.31-43.97 427.31-41.87L427.31-41.87L425.84-41.87L426.01-60.97L427.48-60.97L427.40-54.88L427.40-54.88Q428.45-57.19 430.57-58.43L430.57-58.43L430.57-58.43Q432.69-59.67 435.29-59.67L435.29-59.67L435.29-59.67Q437.14-59.67 438.50-58.85L438.50-58.85L438.50-58.85Q439.87-58.03 440.85-56.67L440.85-56.67L440.85-56.67Q441.84-55.30 442.45-53.56L442.45-53.56L442.45-53.56Q443.06-51.82 443.42-49.99L443.42-49.99L443.42-49.99Q443.77-48.17 443.92-46.40L443.92-46.40L443.92-46.40Q444.07-44.64 444.07-43.25L444.07-43.25L444.07-43.25Q444.07-40.14 443.27-37.79L443.27-37.79L443.27-37.79Q442.47-35.44 441.30-33.53L441.30-33.53L441.30-33.53Q440.12-31.62 438.73-30.00L438.73-30.00L438.73-30.00Q437.35-28.39 436.17-26.73L436.17-26.73L436.17-26.73Q435.00-25.07 434.20-23.22L434.20-23.22L434.20-23.22Q433.40-21.37 433.40-19.02ZM436.59-1.89L436.59-1.89L436.59-1.89Q436.59-0.84 435.82-0.08L435.82-0.08L435.82-0.08Q435.04 0.67 434.03 0.67L434.03 0.67L434.03 0.67Q432.98 0.67 432.20-0.08L432.20-0.08L432.20-0.08Q431.43-0.84 431.43-1.89L431.43-1.89L431.43-1.89Q431.43-2.94 432.20-3.70L432.20-3.70L432.20-3.70Q432.98-4.45 434.03-4.45L434.03-4.45L434.03-4.45Q435.04-4.45 435.82-3.70L435.82-3.70L435.82-3.70Q436.59-2.94 436.59-1.89Z" fill="#444"></path></g></g><style>text {
  font-size: 64px;
  font-family: Arial Black;
  dominant-baseline: central;
  text-anchor: middle;
}</style></svg>